<svg xmlns="http://www.w3.org/2000/svg" viewBox="0 0 1600 1200" fill="none">
  <defs>
    <linearGradient id="bg" x1="180" y1="80" x2="1380" y2="1120" gradientUnits="userSpaceOnUse">
      <stop stop-color="#181108"/>
      <stop offset="0.56" stop-color="#090909"/>
      <stop offset="1" stop-color="#2B1F10"/>
    </linearGradient>
    <radialGradient id="glow" cx="0" cy="0" r="1" gradientUnits="userSpaceOnUse" gradientTransform="translate(520 280) rotate(30) scale(620 420)">
      <stop stop-color="#D4B06D" stop-opacity=".48"/>
      <stop offset="1" stop-color="#D4B06D" stop-opacity="0"/>
    </radialGradient>
  </defs>
  <rect width="1600" height="1200" fill="url(#bg)"/>
  <rect x="60" y="60" width="1480" height="1080" rx="44" fill="#0E0B08" stroke="rgba(255,255,255,.12)"/>
  <ellipse cx="500" cy="290" rx="500" ry="310" fill="url(#glow)"/>
  <circle cx="1315" cy="260" r="150" fill="#D4B06D" fill-opacity=".08"/>
  <circle cx="1240" cy="860" r="250" fill="#D4B06D" fill-opacity=".06"/>
  <path d="M1150 310c60 52 101 133 101 223 0 156-127 283-283 283-83 0-158-35-209-92 43 19 91 29 142 29 195 0 353-158 353-353 0-31-4-61-12-90 33 0 64 11 90 0 0 0 0 0 0 0Z" fill="#F5E3BD" fill-opacity=".09"/>
  <text x="140" y="190" fill="#D4B06D" font-family="Georgia, serif" font-size="30" letter-spacing="9">DUMBE MUSIC AWARDS</text>
  <text x="140" y="350" fill="#F8F0E4" font-family="Georgia, serif" font-size="118" font-weight="700">2026 Ceremony</text>
  <text x="140" y="455" fill="#F8F0E4" font-family="Arial, sans-serif" font-size="44">A Sound Worth Remembering</text>
  <text x="140" y="560" fill="#B9AD99" font-family="Arial, sans-serif" font-size="28">Premium placeholder artwork prepared for the next flagship edition.</text>
  <text x="140" y="605" fill="#B9AD99" font-family="Arial, sans-serif" font-size="28">Replace with final photography or campaign visuals at any time.</text>
  <rect x="140" y="715" width="268" height="68" rx="34" fill="#D4B06D"/>
  <text x="197" y="758" fill="#17120B" font-family="Arial, sans-serif" font-size="24" font-weight="700">UPCOMING EDITION</text>
  <text x="140" y="987" fill="#F8F0E4" font-family="Georgia, serif" font-size="62">Celebrating Talent. Honouring Legacy.</text>
  <text x="140" y="1042" fill="#B9AD99" font-family="Arial, sans-serif" font-size="24">Local image placeholder ready for future ceremony photography.</text>
</svg>
